<svg width="455" height="290" viewBox="0 0 455 290" fill="none" xmlns="http://www.w3.org/2000/svg">
<path d="M400.016 44.626L390.812 106.845L361.203 126.34L346.176 107.174L352.712 42.375L330.502 0.499969L293.996 35.793L294.448 97.082L270.084 119.138L252.43 96.508L251.926 28.206L226.319 1.26797L200.303 32.093L200.786 97.771L183.432 122.401L160.516 98.068L160.083 39.404L124.784 2.01599L101.446 43.343L108.021 103.704L95.094 130.066L66.901 108.348L55.089 49.792L0.577026 17.819C19.158 96.705 40.804 212.888 50.46 289.699H410.746C418.505 209.504 437.897 90.001 454.5 14.475L400.016 44.626Z" fill="#B5B5B5"/>
</svg>
