<svg width="454" height="290" viewBox="0 0 454 290" fill="none" xmlns="http://www.w3.org/2000/svg">
<path d="M399.439 44.126L390.235 106.345L360.626 125.84L345.599 106.674L352.135 41.875L329.925 -3.05176e-05L293.419 35.293L293.871 96.582L269.507 118.638L251.853 96.008L251.349 27.706L225.742 0.767975L199.726 31.593L200.209 97.271L182.855 121.901L159.939 97.568L159.506 38.904L124.207 1.51599L100.869 42.843L107.444 103.204L94.517 129.566L66.324 107.848L54.512 49.292L0 17.319C18.581 96.205 40.227 212.388 49.883 289.199H410.169C417.928 209.004 437.32 89.501 453.923 13.975L399.439 44.126Z" fill="#D5B56E"/>
</svg>
