<svg xmlns="http://www.w3.org/2000/svg" xmlns:xlink="http://www.w3.org/1999/xlink" version="1.1" width="2657.21" height="3595.71" viewBox="0 0 2657.21 3595.71">
<defs>
<clipPath id="clip_0">
<path transform="matrix(1,0,0,-1,0,3595.71)" d="M0 3595.708H2657.207V0H0Z"/>
</clipPath>
</defs>
<g id="layer_1" data-name="Layer 1">
<g clip-path="url(#clip_0)">
<path transform="matrix(1,0,0,-1,2729.3682,479.5161)" d="M0 0-22.159 11.518-44.225-.149-40.098 24.479-58.02 41.813-33.339 45.518-22.381 67.932-11.228 45.593 13.516 42.078-4.322 24.584ZM152.609 180.2 143.405 117.981 113.797 98.486 98.769 117.652 105.305 182.451 83.095 224.326 46.589 189.033 47.04 127.744 22.677 105.688 5.023 128.318 4.519 196.62-21.088 223.558-47.104 192.733-46.62 127.055-63.975 102.425-86.891 126.758-87.323 185.422-122.623 222.81-145.961 181.483-139.385 121.122-152.313 94.76-180.506 116.478-192.318 175.034-246.83 207.007C-228.249 128.121-206.603 11.938-196.947-64.873H163.339C171.098 15.322 190.49 134.825 207.093 210.351Z" fill="#ababab"/>
<path transform="matrix(1,0,0,-1,2261.063,371.38014)" d="M0 0-10.959-22.413-22.112-.075-46.855 3.44-29.018 20.934-33.339 45.518-11.18 34.001 10.886 45.668 6.759 21.04 24.681 3.705ZM163.608 110.391H-196.678C-204.437 30.196-223.829-89.307-240.432-164.833L-185.948-134.682-176.744-72.463-147.136-52.968-132.108-72.134-138.645-136.933-116.434-178.808-79.928-143.515-80.38-82.226-56.016-60.169-38.362-82.8-37.858-151.102-12.251-178.04 13.765-147.215 13.281-81.536 30.636-56.906 53.552-81.24 53.984-139.904 89.283-177.292 112.622-135.965 106.046-75.604 118.974-49.242 147.167-70.959 158.979-129.516 213.491-161.489C194.909-82.603 173.264 33.581 163.608 110.391" fill="#ababab"/>
<path transform="matrix(1,0,0,-1,1800.7799,479.5161)" d="M0 0-22.159 11.518-44.225-.149-40.098 24.479-58.021 41.813-33.339 45.518-22.381 67.932-11.228 45.593 13.516 42.078-4.322 24.584ZM152.609 180.2 143.405 117.981 113.796 98.486 98.769 117.652 105.305 182.451 83.095 224.326 46.589 189.033 47.04 127.744 22.677 105.688 5.023 128.318 4.519 196.62-21.088 223.558-47.104 192.733-46.621 127.055-63.975 102.425-86.891 126.758-87.324 185.422-122.623 222.81-145.961 181.483-139.386 121.122-152.313 94.76-180.506 116.478-192.318 175.034-246.83 207.007C-228.249 128.121-206.604 11.938-196.947-64.873H163.339C171.098 15.322 190.49 134.825 207.093 210.351Z" fill="#ababab"/>
<path transform="matrix(1,0,0,-1,1332.2775,371.38014)" d="M0 0-10.959-22.413-22.112-.075-46.855 3.44-29.018 20.934-33.339 45.518-11.18 34.001 10.886 45.668 6.758 21.04 24.681 3.705ZM163.607 110.391H-196.679C-204.437 30.196-223.829-89.307-240.432-164.833L-185.949-134.682-176.744-72.463-147.136-52.968-132.108-72.134-138.645-136.933-116.434-178.808-79.928-143.515-80.38-82.226-56.016-60.169-38.362-82.8-37.859-151.102-12.251-178.04 13.765-147.215 13.281-81.536 30.636-56.906 53.551-81.24 53.984-139.904 89.283-177.292 112.622-135.965 106.046-75.604 118.974-49.242 147.167-70.959 158.979-129.516 213.491-161.489C194.909-82.603 173.264 33.581 163.607 110.391" fill="#ababab"/>
<path transform="matrix(1,0,0,-1,871.9943,479.5161)" d="M0 0-22.159 11.518-44.225-.149-40.098 24.479-58.02 41.813-33.339 45.518-22.38 67.932-11.228 45.593 13.516 42.078-4.322 24.584ZM152.609 180.2 143.405 117.981 113.796 98.486 98.769 117.652 105.305 182.451 83.095 224.326 46.589 189.033 47.041 127.744 22.677 105.688 5.023 128.318 4.519 196.62-21.088 223.558-47.104 192.733-46.621 127.055-63.975 102.425-86.891 126.758-87.324 185.422-122.623 222.81-145.961 181.483-139.386 121.122-152.313 94.76-180.506 116.478-192.318 175.034-246.83 207.007C-228.249 128.121-206.603 11.938-196.947-64.873H163.339C171.098 15.322 190.49 134.825 207.093 210.351Z" fill="#ababab"/>
<path transform="matrix(1,0,0,-1,403.6891,371.38014)" d="M0 0-10.959-22.413-22.112-.075-46.855 3.44-29.018 20.934-33.339 45.518-11.18 34.001 10.886 45.668 6.758 21.04 24.681 3.705ZM163.607 110.391H-196.679C-204.438 30.196-223.829-89.307-240.432-164.833L-185.948-134.682-176.744-72.463-147.136-52.968-132.108-72.134-138.645-136.933-116.434-178.808-79.928-143.515-80.38-82.226-56.016-60.169-38.362-82.8-37.858-151.102-12.251-178.04 13.765-147.215 13.281-81.536 30.636-56.906 53.552-81.24 53.984-139.904 89.283-177.292 112.622-135.965 106.046-75.604 118.974-49.242 147.166-70.959 158.979-129.516 213.491-161.489C194.909-82.603 173.264 33.581 163.607 110.391" fill="#ababab"/>
<path transform="matrix(1,0,0,-1,-56.5941,479.5161)" d="M0 0-22.159 11.518-44.225-.149-40.098 24.479-58.02 41.813-33.339 45.518-22.38 67.932-11.228 45.593 13.516 42.078-4.321 24.584ZM152.609 180.2 143.405 117.981 113.796 98.486 98.769 117.652 105.306 182.451 83.095 224.326 46.589 189.033 47.041 127.744 22.677 105.688 5.023 128.318 4.519 196.62-21.088 223.558-47.104 192.733-46.62 127.055-63.975 102.425-86.891 126.758-87.324 185.422-122.623 222.81-145.961 181.483-139.386 121.122-152.313 94.76-180.506 116.478-192.318 175.034-246.83 207.007C-228.249 128.121-206.603 11.938-196.947-64.873H163.339C171.098 15.322 190.49 134.825 207.093 210.351Z" fill="#ababab"/>
<path transform="matrix(1,0,0,-1,2729.3682,164.51856)" d="M0 0-22.159 11.518-44.225-.149-40.098 24.479-58.02 41.813-33.339 45.518-22.381 67.931-11.228 45.593 13.516 42.078-4.322 24.584ZM152.609 180.2 143.405 117.981 113.797 98.486 98.769 117.652 105.305 182.451 83.095 224.326 46.589 189.033 47.04 127.744 22.677 105.688 5.023 128.318 4.519 196.62-21.088 223.558-47.104 192.733-46.62 127.055-63.975 102.425-86.891 126.758-87.323 185.422-122.623 222.81-145.961 181.483-139.385 121.122-152.313 94.76-180.506 116.478-192.318 175.034-246.83 207.007C-228.249 128.121-206.603 11.938-196.947-64.873H163.339C171.098 15.322 190.49 134.825 207.093 210.351Z" fill="#ababab"/>
<path transform="matrix(1,0,0,-1,2261.063,56.382814)" d="M0 0-10.959-22.413-22.112-.075-46.855 3.44-29.018 20.934-33.339 45.518-11.18 34.001 10.886 45.668 6.759 21.04 24.681 3.705ZM163.608 110.391H-196.678C-204.437 30.197-223.829-89.307-240.432-164.833L-185.948-134.681-176.744-72.462-147.136-52.967-132.108-72.134-138.645-136.933-116.434-178.807-79.928-143.515-80.38-82.226-56.016-60.169-38.362-82.8-37.858-151.101-12.251-178.04 13.765-147.215 13.281-81.536 30.636-56.906 53.552-81.24 53.984-139.904 89.283-177.292 112.622-135.964 106.046-75.604 118.974-49.241 147.167-70.959 158.979-129.516 213.491-161.489C194.909-82.603 173.264 33.581 163.608 110.391" fill="#ababab"/>
<path transform="matrix(1,0,0,-1,1800.7799,164.51856)" d="M0 0-22.159 11.518-44.225-.149-40.098 24.479-58.021 41.813-33.339 45.518-22.381 67.931-11.228 45.593 13.516 42.078-4.322 24.584ZM152.609 180.2 143.405 117.981 113.796 98.486 98.769 117.652 105.305 182.451 83.095 224.326 46.589 189.033 47.04 127.744 22.677 105.688 5.023 128.318 4.519 196.62-21.088 223.558-47.104 192.733-46.621 127.055-63.975 102.425-86.891 126.758-87.324 185.422-122.623 222.81-145.961 181.483-139.386 121.122-152.313 94.76-180.506 116.478-192.318 175.034-246.83 207.007C-228.249 128.121-206.604 11.938-196.947-64.873H163.339C171.098 15.322 190.49 134.825 207.093 210.351Z" fill="#ababab"/>
<path transform="matrix(1,0,0,-1,1332.2775,56.382814)" d="M0 0-10.959-22.413-22.112-.075-46.855 3.44-29.018 20.934-33.339 45.518-11.18 34.001 10.886 45.668 6.758 21.04 24.681 3.705ZM163.607 110.391H-196.679C-204.437 30.197-223.829-89.307-240.432-164.833L-185.949-134.681-176.744-72.462-147.136-52.967-132.108-72.134-138.645-136.933-116.434-178.807-79.928-143.515-80.38-82.226-56.016-60.169-38.362-82.8-37.859-151.101-12.251-178.04 13.765-147.215 13.281-81.536 30.636-56.906 53.551-81.24 53.984-139.904 89.283-177.292 112.622-135.964 106.046-75.604 118.974-49.241 147.167-70.959 158.979-129.516 213.491-161.489C194.909-82.603 173.264 33.581 163.607 110.391" fill="#ababab"/>
<path transform="matrix(1,0,0,-1,871.9943,164.51856)" d="M0 0-22.159 11.518-44.225-.149-40.098 24.479-58.02 41.813-33.339 45.518-22.38 67.931-11.228 45.593 13.516 42.078-4.322 24.584ZM152.609 180.2 143.405 117.981 113.796 98.486 98.769 117.652 105.305 182.451 83.095 224.326 46.589 189.033 47.041 127.744 22.677 105.688 5.023 128.318 4.519 196.62-21.088 223.558-47.104 192.733-46.621 127.055-63.975 102.425-86.891 126.758-87.324 185.422-122.623 222.81-145.961 181.483-139.386 121.122-152.313 94.76-180.506 116.478-192.318 175.034-246.83 207.007C-228.249 128.121-206.603 11.938-196.947-64.873H163.339C171.098 15.322 190.49 134.825 207.093 210.351Z" fill="#ababab"/>
<path transform="matrix(1,0,0,-1,403.6891,56.382814)" d="M0 0-10.959-22.413-22.112-.075-46.855 3.44-29.018 20.934-33.339 45.518-11.18 34.001 10.886 45.668 6.758 21.04 24.681 3.705ZM163.607 110.391H-196.679C-204.438 30.197-223.829-89.307-240.432-164.833L-185.948-134.681-176.744-72.462-147.136-52.967-132.108-72.134-138.645-136.933-116.434-178.807-79.928-143.515-80.38-82.226-56.016-60.169-38.362-82.8-37.858-151.101-12.251-178.04 13.765-147.215 13.281-81.536 30.636-56.906 53.552-81.24 53.984-139.904 89.283-177.292 112.622-135.964 106.046-75.604 118.974-49.241 147.166-70.959 158.979-129.516 213.491-161.489C194.909-82.603 173.264 33.581 163.607 110.391" fill="#ababab"/>
<path transform="matrix(1,0,0,-1,-56.5941,164.51856)" d="M0 0-22.159 11.518-44.225-.149-40.098 24.479-58.02 41.813-33.339 45.518-22.38 67.931-11.228 45.593 13.516 42.078-4.321 24.584ZM152.609 180.2 143.405 117.981 113.796 98.486 98.769 117.652 105.306 182.451 83.095 224.326 46.589 189.033 47.041 127.744 22.677 105.688 5.023 128.318 4.519 196.62-21.088 223.558-47.104 192.733-46.62 127.055-63.975 102.425-86.891 126.758-87.324 185.422-122.623 222.81-145.961 181.483-139.386 121.122-152.313 94.76-180.506 116.478-192.318 175.034-246.83 207.007C-228.249 128.121-206.603 11.938-196.947-64.873H163.339C171.098 15.322 190.49 134.825 207.093 210.351Z" fill="#ababab"/>
<path transform="matrix(1,0,0,-1,-55.8221,695.3777)" d="M0 0-10.958-22.413-22.112-.075-46.855 3.44-29.018 20.934-33.339 45.518-11.18 34.001 10.886 45.668 6.758 21.04 24.681 3.705ZM163.607 110.391H-196.679C-204.437 30.196-223.829-89.307-240.432-164.833L-185.948-134.681-176.744-72.462-147.136-52.967-132.108-72.134-138.645-136.933-116.434-178.807-79.928-143.515-80.379-82.226-56.016-60.169-38.362-82.8-37.858-151.101-12.251-178.04 13.765-147.215 13.281-81.536 30.636-56.906 53.552-81.24 53.984-139.904 89.284-177.292 112.622-135.964 106.046-75.604 118.974-49.241 147.167-70.959 158.979-129.516 213.491-161.489C194.909-82.603 173.264 33.581 163.607 110.391" fill="#ababab"/>
<path transform="matrix(1,0,0,-1,412.4831,803.5134)" d="M0 0-22.159 11.518-44.225-.149-40.098 24.479-58.02 41.813-33.339 45.518-22.38 67.931-11.228 45.593 13.516 42.078-4.321 24.584ZM152.609 180.2 143.405 117.981 113.796 98.486 98.769 117.652 105.306 182.451 83.095 224.326 46.589 189.033 47.041 127.744 22.677 105.688 5.023 128.318 4.52 196.62-21.088 223.558-47.104 192.733-46.62 127.055-63.975 102.425-86.891 126.758-87.324 185.422-122.623 222.81-145.961 181.483-139.386 121.122-152.313 94.76-180.506 116.478-192.318 175.034-246.83 207.007C-228.249 128.121-206.603 11.938-196.947-64.873H163.339C171.098 15.322 190.49 134.825 207.093 210.351Z" fill="#ababab"/>
<path transform="matrix(1,0,0,-1,872.7662,695.3777)" d="M0 0-10.959-22.413-22.112-.075-46.855 3.44-29.018 20.934-33.339 45.518-11.18 34.001 10.886 45.668 6.758 21.04 24.681 3.705ZM163.607 110.391H-196.679C-204.437 30.196-223.829-89.307-240.432-164.833L-185.948-134.681-176.744-72.462-147.136-52.967-132.108-72.134-138.645-136.933-116.434-178.807-79.928-143.515-80.38-82.226-56.016-60.169-38.362-82.8-37.858-151.101-12.251-178.04 13.765-147.215 13.281-81.536 30.636-56.906 53.552-81.24 53.984-139.904 89.283-177.292 112.622-135.964 106.046-75.604 118.974-49.241 147.167-70.959 158.979-129.516 213.491-161.489C194.909-82.603 173.264 33.581 163.607 110.391" fill="#ababab"/>
<path transform="matrix(1,0,0,-1,1341.2687,803.5134)" d="M0 0-22.159 11.518-44.225-.149-40.098 24.479-58.02 41.813-33.339 45.518-22.38 67.931-11.228 45.593 13.516 42.078-4.322 24.584ZM152.609 180.2 143.405 117.981 113.796 98.486 98.769 117.652 105.305 182.451 83.095 224.326 46.589 189.033 47.041 127.744 22.677 105.688 5.023 128.318 4.519 196.62-21.088 223.558-47.104 192.733-46.621 127.055-63.975 102.425-86.891 126.758-87.324 185.422-122.623 222.81-145.961 181.483-139.386 121.122-152.313 94.76-180.506 116.478-192.318 175.034-246.83 207.007C-228.249 128.121-206.603 11.938-196.947-64.873H163.339C171.098 15.322 190.49 134.825 207.093 210.351Z" fill="#ababab"/>
<path transform="matrix(1,0,0,-1,1801.5519,695.3777)" d="M0 0-10.959-22.413-22.112-.075-46.855 3.44-29.018 20.934-33.339 45.518-11.18 34.001 10.886 45.668 6.758 21.04 24.681 3.705ZM163.607 110.391H-196.679C-204.437 30.196-223.829-89.307-240.432-164.833L-185.949-134.681-176.744-72.462-147.136-52.967-132.108-72.134-138.645-136.933-116.434-178.807-79.928-143.515-80.38-82.226-56.016-60.169-38.362-82.8-37.858-151.101-12.251-178.04 13.765-147.215 13.281-81.536 30.636-56.906 53.551-81.24 53.984-139.904 89.283-177.292 112.622-135.964 106.046-75.604 118.974-49.241 147.167-70.959 158.979-129.516 213.491-161.489C194.909-82.603 173.264 33.581 163.607 110.391" fill="#ababab"/>
<path transform="matrix(1,0,0,-1,2269.8572,803.5134)" d="M0 0-22.159 11.518-44.225-.149-40.098 24.479-58.02 41.813-33.339 45.518-22.381 67.931-11.228 45.593 13.516 42.078-4.322 24.584ZM152.609 180.2 143.405 117.981 113.796 98.486 98.769 117.652 105.305 182.451 83.095 224.326 46.589 189.033 47.04 127.744 22.677 105.688 5.023 128.318 4.519 196.62-21.089 223.558-47.104 192.733-46.621 127.055-63.975 102.425-86.891 126.758-87.324 185.422-122.623 222.81-145.961 181.483-139.386 121.122-152.313 94.76-180.506 116.478-192.318 175.034-246.83 207.007C-228.249 128.121-206.604 11.938-196.947-64.873H163.339C171.098 15.322 190.49 134.825 207.093 210.351Z" fill="#ababab"/>
<path transform="matrix(1,0,0,-1,2730.1402,695.3777)" d="M0 0-10.959-22.413-22.112-.075-46.855 3.44-29.018 20.934-33.339 45.518-11.18 34.001 10.886 45.668 6.759 21.04 24.681 3.705ZM163.608 110.391H-196.678C-204.437 30.196-223.829-89.307-240.432-164.833L-185.948-134.681-176.744-72.462-147.136-52.967-132.108-72.134-138.645-136.933-116.434-178.807-79.928-143.515-80.38-82.226-56.016-60.169-38.362-82.8-37.858-151.101-12.251-178.04 13.765-147.215 13.281-81.536 30.636-56.906 53.552-81.24 53.984-139.904 89.283-177.292 112.622-135.964 106.046-75.604 118.974-49.241 147.167-70.959 158.979-129.516 213.491-161.489C194.909-82.603 173.264 33.581 163.608 110.391" fill="#ababab"/>
<path transform="matrix(1,0,0,-1,-55.8221,1010.375)" d="M0 0-10.958-22.413-22.112-.075-46.855 3.44-29.018 20.934-33.339 45.518-11.18 34 10.886 45.668 6.758 21.04 24.681 3.705ZM163.607 110.391H-196.679C-204.437 30.196-223.829-89.307-240.432-164.833L-185.948-134.681-176.744-72.463-147.136-52.968-132.108-72.134-138.645-136.933-116.434-178.808-79.928-143.515-80.379-82.226-56.016-60.169-38.362-82.8-37.858-151.102-12.251-178.04 13.765-147.215 13.281-81.536 30.636-56.906 53.552-81.24 53.984-139.904 89.284-177.292 112.622-135.965 106.046-75.604 118.974-49.242 147.167-70.959 158.979-129.516 213.491-161.489C194.909-82.603 173.264 33.581 163.607 110.391" fill="#ababab"/>
<path transform="matrix(1,0,0,-1,412.4831,1118.511)" d="M0 0-22.159 11.518-44.225-.149-40.098 24.479-58.02 41.813-33.339 45.518-22.38 67.932-11.228 45.593 13.516 42.078-4.321 24.584ZM152.609 180.2 143.405 117.981 113.796 98.486 98.769 117.652 105.306 182.451 83.095 224.326 46.589 189.033 47.041 127.744 22.677 105.688 5.023 128.318 4.52 196.62-21.088 223.558-47.104 192.733-46.62 127.055-63.975 102.425-86.891 126.758-87.324 185.422-122.623 222.81-145.961 181.483-139.386 121.122-152.313 94.76-180.506 116.478-192.318 175.034-246.83 207.007C-228.249 128.121-206.603 11.938-196.947-64.873H163.339C171.098 15.322 190.49 134.825 207.093 210.351Z" fill="#ababab"/>
<path transform="matrix(1,0,0,-1,872.7662,1010.375)" d="M0 0-10.959-22.413-22.112-.075-46.855 3.44-29.018 20.934-33.339 45.518-11.18 34 10.886 45.668 6.758 21.04 24.681 3.705ZM163.607 110.391H-196.679C-204.437 30.196-223.829-89.307-240.432-164.833L-185.948-134.681-176.744-72.463-147.136-52.968-132.108-72.134-138.645-136.933-116.434-178.808-79.928-143.515-80.38-82.226-56.016-60.169-38.362-82.8-37.858-151.102-12.251-178.04 13.765-147.215 13.281-81.536 30.636-56.906 53.552-81.24 53.984-139.904 89.283-177.292 112.622-135.965 106.046-75.604 118.974-49.242 147.167-70.959 158.979-129.516 213.491-161.489C194.909-82.603 173.264 33.581 163.607 110.391" fill="#ababab"/>
<path transform="matrix(1,0,0,-1,1341.2687,1118.511)" d="M0 0-22.159 11.518-44.225-.149-40.098 24.479-58.02 41.813-33.339 45.518-22.38 67.932-11.228 45.593 13.516 42.078-4.322 24.584ZM152.609 180.2 143.405 117.981 113.796 98.486 98.769 117.652 105.305 182.451 83.095 224.326 46.589 189.033 47.041 127.744 22.677 105.688 5.023 128.318 4.519 196.62-21.088 223.558-47.104 192.733-46.621 127.055-63.975 102.425-86.891 126.758-87.324 185.422-122.623 222.81-145.961 181.483-139.386 121.122-152.313 94.76-180.506 116.478-192.318 175.034-246.83 207.007C-228.249 128.121-206.603 11.938-196.947-64.873H163.339C171.098 15.322 190.49 134.825 207.093 210.351Z" fill="#ababab"/>
<path transform="matrix(1,0,0,-1,1801.5519,1010.375)" d="M0 0-10.959-22.413-22.112-.075-46.855 3.44-29.018 20.934-33.339 45.518-11.18 34 10.886 45.668 6.758 21.04 24.681 3.705ZM163.607 110.391H-196.679C-204.437 30.196-223.829-89.307-240.432-164.833L-185.949-134.681-176.744-72.463-147.136-52.968-132.108-72.134-138.645-136.933-116.434-178.808-79.928-143.515-80.38-82.226-56.016-60.169-38.362-82.8-37.858-151.102-12.251-178.04 13.765-147.215 13.281-81.536 30.636-56.906 53.551-81.24 53.984-139.904 89.283-177.292 112.622-135.965 106.046-75.604 118.974-49.242 147.167-70.959 158.979-129.516 213.491-161.489C194.909-82.603 173.264 33.581 163.607 110.391" fill="#ababab"/>
<path transform="matrix(1,0,0,-1,2269.8572,1118.511)" d="M0 0-22.159 11.518-44.225-.149-40.098 24.479-58.02 41.813-33.339 45.518-22.381 67.932-11.228 45.593 13.516 42.078-4.322 24.584ZM152.609 180.2 143.405 117.981 113.796 98.486 98.769 117.652 105.305 182.451 83.095 224.326 46.589 189.033 47.04 127.744 22.677 105.688 5.023 128.318 4.519 196.62-21.089 223.558-47.104 192.733-46.621 127.055-63.975 102.425-86.891 126.758-87.324 185.422-122.623 222.81-145.961 181.483-139.386 121.122-152.313 94.76-180.506 116.478-192.318 175.034-246.83 207.007C-228.249 128.121-206.604 11.938-196.947-64.873H163.339C171.098 15.322 190.49 134.825 207.093 210.351Z" fill="#ababab"/>
<path transform="matrix(1,0,0,-1,2730.1402,1010.375)" d="M0 0-10.959-22.413-22.112-.075-46.855 3.44-29.018 20.934-33.339 45.518-11.18 34 10.886 45.668 6.759 21.04 24.681 3.705ZM163.608 110.391H-196.678C-204.437 30.196-223.829-89.307-240.432-164.833L-185.948-134.681-176.744-72.463-147.136-52.968-132.108-72.134-138.645-136.933-116.434-178.808-79.928-143.515-80.38-82.226-56.016-60.169-38.362-82.8-37.858-151.102-12.251-178.04 13.765-147.215 13.281-81.536 30.636-56.906 53.552-81.24 53.984-139.904 89.283-177.292 112.622-135.965 106.046-75.604 118.974-49.242 147.167-70.959 158.979-129.516 213.491-161.489C194.909-82.603 173.264 33.581 163.608 110.391" fill="#ababab"/>
<path transform="matrix(1,0,0,-1,2738.3682,1749.043)" d="M0 0-22.159 11.518-44.225-.149-40.098 24.479-58.02 41.813-33.339 45.518-22.381 67.932-11.228 45.593 13.516 42.078-4.322 24.585ZM152.609 180.2 143.405 117.981 113.797 98.486 98.769 117.652 105.305 182.451 83.095 224.326 46.589 189.033 47.04 127.744 22.677 105.688 5.023 128.318 4.519 196.62-21.088 223.558-47.104 192.733-46.62 127.055-63.975 102.425-86.891 126.758-87.323 185.422-122.623 222.81-145.961 181.483-139.385 121.122-152.313 94.76-180.506 116.478-192.318 175.034-246.83 207.007C-228.249 128.121-206.603 11.938-196.947-64.873H163.339C171.098 15.322 190.49 134.825 207.093 210.351Z" fill="#ababab"/>
<path transform="matrix(1,0,0,-1,2270.063,1640.907)" d="M0 0-10.959-22.413-22.112-.075-46.855 3.44-29.018 20.934-33.339 45.518-11.18 34.001 10.886 45.668 6.759 21.04 24.681 3.705ZM163.608 110.391H-196.678C-204.437 30.196-223.829-89.307-240.432-164.833L-185.948-134.681-176.744-72.463-147.136-52.968-132.108-72.134-138.645-136.933-116.434-178.808-79.928-143.515-80.38-82.226-56.016-60.169-38.362-82.8-37.858-151.102-12.251-178.04 13.765-147.215 13.281-81.536 30.636-56.906 53.552-81.24 53.984-139.904 89.283-177.292 112.622-135.965 106.046-75.604 118.974-49.242 147.167-70.959 158.979-129.516 213.491-161.489C194.909-82.603 173.264 33.581 163.608 110.391" fill="#ababab"/>
<path transform="matrix(1,0,0,-1,1809.7799,1749.043)" d="M0 0-22.159 11.518-44.225-.149-40.098 24.479-58.021 41.813-33.339 45.518-22.381 67.932-11.228 45.593 13.516 42.078-4.322 24.585ZM152.609 180.2 143.405 117.981 113.796 98.486 98.769 117.652 105.305 182.451 83.095 224.326 46.589 189.033 47.04 127.744 22.677 105.688 5.023 128.318 4.519 196.62-21.088 223.558-47.104 192.733-46.621 127.055-63.975 102.425-86.891 126.758-87.324 185.422-122.623 222.81-145.961 181.483-139.386 121.122-152.313 94.76-180.506 116.478-192.318 175.034-246.83 207.007C-228.249 128.121-206.604 11.938-196.947-64.873H163.339C171.098 15.322 190.49 134.825 207.093 210.351Z" fill="#ababab"/>
<path transform="matrix(1,0,0,-1,1341.2775,1640.907)" d="M0 0-10.959-22.413-22.112-.075-46.855 3.44-29.018 20.934-33.339 45.518-11.18 34.001 10.886 45.668 6.758 21.04 24.681 3.705ZM163.607 110.391H-196.679C-204.437 30.196-223.829-89.307-240.432-164.833L-185.949-134.681-176.744-72.463-147.136-52.968-132.108-72.134-138.645-136.933-116.434-178.808-79.928-143.515-80.38-82.226-56.016-60.169-38.362-82.8-37.859-151.102-12.251-178.04 13.765-147.215 13.281-81.536 30.636-56.906 53.551-81.24 53.984-139.904 89.283-177.292 112.622-135.965 106.046-75.604 118.974-49.242 147.167-70.959 158.979-129.516 213.491-161.489C194.909-82.603 173.264 33.581 163.607 110.391" fill="#ababab"/>
<path transform="matrix(1,0,0,-1,880.9943,1749.043)" d="M0 0-22.159 11.518-44.225-.149-40.098 24.479-58.02 41.813-33.339 45.518-22.38 67.932-11.228 45.593 13.516 42.078-4.322 24.585ZM152.609 180.2 143.405 117.981 113.796 98.486 98.769 117.652 105.305 182.451 83.095 224.326 46.589 189.033 47.041 127.744 22.677 105.688 5.023 128.318 4.519 196.62-21.088 223.558-47.104 192.733-46.621 127.055-63.975 102.425-86.891 126.758-87.324 185.422-122.623 222.81-145.961 181.483-139.386 121.122-152.313 94.76-180.506 116.478-192.318 175.034-246.83 207.007C-228.249 128.121-206.603 11.938-196.947-64.873H163.339C171.098 15.322 190.49 134.825 207.093 210.351Z" fill="#ababab"/>
<path transform="matrix(1,0,0,-1,412.6891,1640.907)" d="M0 0-10.959-22.413-22.112-.075-46.855 3.44-29.018 20.934-33.339 45.518-11.18 34.001 10.886 45.668 6.758 21.04 24.681 3.705ZM163.607 110.391H-196.679C-204.438 30.196-223.829-89.307-240.432-164.833L-185.948-134.681-176.744-72.463-147.136-52.968-132.108-72.134-138.645-136.933-116.434-178.808-79.928-143.515-80.38-82.226-56.016-60.169-38.362-82.8-37.858-151.102-12.251-178.04 13.765-147.215 13.281-81.536 30.636-56.906 53.552-81.24 53.984-139.904 89.283-177.292 112.622-135.965 106.046-75.604 118.974-49.242 147.166-70.959 158.979-129.516 213.491-161.489C194.909-82.603 173.264 33.581 163.607 110.391" fill="#ababab"/>
<path transform="matrix(1,0,0,-1,-47.5941,1749.043)" d="M0 0-22.159 11.518-44.225-.149-40.098 24.479-58.02 41.813-33.339 45.518-22.38 67.932-11.228 45.593 13.516 42.078-4.321 24.585ZM152.609 180.2 143.405 117.981 113.796 98.486 98.769 117.652 105.306 182.451 83.095 224.326 46.589 189.033 47.041 127.744 22.677 105.688 5.023 128.318 4.519 196.62-21.088 223.558-47.104 192.733-46.62 127.055-63.975 102.425-86.891 126.758-87.324 185.422-122.623 222.81-145.961 181.483-139.386 121.122-152.313 94.76-180.506 116.478-192.318 175.034-246.83 207.007C-228.249 128.121-206.603 11.938-196.947-64.873H163.339C171.098 15.322 190.49 134.825 207.093 210.351Z" fill="#ababab"/>
<path transform="matrix(1,0,0,-1,2738.3682,1434.0454)" d="M0 0-22.159 11.518-44.225-.149-40.098 24.479-58.02 41.813-33.339 45.518-22.381 67.932-11.228 45.593 13.516 42.078-4.322 24.584ZM152.609 180.2 143.405 117.981 113.797 98.486 98.769 117.652 105.305 182.451 83.095 224.326 46.589 189.033 47.04 127.744 22.677 105.688 5.023 128.318 4.519 196.62-21.088 223.558-47.104 192.733-46.62 127.055-63.975 102.425-86.891 126.758-87.323 185.422-122.623 222.81-145.961 181.483-139.385 121.122-152.313 94.76-180.506 116.478-192.318 175.034-246.83 207.007C-228.249 128.121-206.603 11.938-196.947-64.873H163.339C171.098 15.322 190.49 134.825 207.093 210.351Z" fill="#ababab"/>
<path transform="matrix(1,0,0,-1,2270.063,1325.9094)" d="M0 0-10.959-22.413-22.112-.075-46.855 3.44-29.018 20.934-33.339 45.518-11.18 34 10.886 45.667 6.759 21.039 24.681 3.705ZM163.608 110.391H-196.678C-204.437 30.196-223.829-89.307-240.432-164.833L-185.948-134.682-176.744-72.463-147.136-52.968-132.108-72.134-138.645-136.933-116.434-178.808-79.928-143.515-80.38-82.226-56.016-60.169-38.362-82.8-37.858-151.102-12.251-178.04 13.765-147.215 13.281-81.536 30.636-56.906 53.552-81.24 53.984-139.904 89.283-177.292 112.622-135.965 106.046-75.604 118.974-49.242 147.167-70.959 158.979-129.516 213.491-161.489C194.909-82.603 173.264 33.581 163.608 110.391" fill="#ababab"/>
<path transform="matrix(1,0,0,-1,1809.7799,1434.0454)" d="M0 0-22.159 11.518-44.225-.149-40.098 24.479-58.021 41.813-33.339 45.518-22.381 67.932-11.228 45.593 13.516 42.078-4.322 24.584ZM152.609 180.2 143.405 117.981 113.796 98.486 98.769 117.652 105.305 182.451 83.095 224.326 46.589 189.033 47.04 127.744 22.677 105.688 5.023 128.318 4.519 196.62-21.088 223.558-47.104 192.733-46.621 127.055-63.975 102.425-86.891 126.758-87.324 185.422-122.623 222.81-145.961 181.483-139.386 121.122-152.313 94.76-180.506 116.478-192.318 175.034-246.83 207.007C-228.249 128.121-206.604 11.938-196.947-64.873H163.339C171.098 15.322 190.49 134.825 207.093 210.351Z" fill="#ababab"/>
<path transform="matrix(1,0,0,-1,1341.2775,1325.9094)" d="M0 0-10.959-22.413-22.112-.075-46.855 3.44-29.018 20.934-33.339 45.518-11.18 34 10.886 45.667 6.758 21.039 24.681 3.705ZM163.607 110.391H-196.679C-204.437 30.196-223.829-89.307-240.432-164.833L-185.949-134.682-176.744-72.463-147.136-52.968-132.108-72.134-138.645-136.933-116.434-178.808-79.928-143.515-80.38-82.226-56.016-60.169-38.362-82.8-37.859-151.102-12.251-178.04 13.765-147.215 13.281-81.536 30.636-56.906 53.551-81.24 53.984-139.904 89.283-177.292 112.622-135.965 106.046-75.604 118.974-49.242 147.167-70.959 158.979-129.516 213.491-161.489C194.909-82.603 173.264 33.581 163.607 110.391" fill="#ababab"/>
<path transform="matrix(1,0,0,-1,880.9943,1434.0454)" d="M0 0-22.159 11.518-44.225-.149-40.098 24.479-58.02 41.813-33.339 45.518-22.38 67.932-11.228 45.593 13.516 42.078-4.322 24.584ZM152.609 180.2 143.405 117.981 113.796 98.486 98.769 117.652 105.305 182.451 83.095 224.326 46.589 189.033 47.041 127.744 22.677 105.688 5.023 128.318 4.519 196.62-21.088 223.558-47.104 192.733-46.621 127.055-63.975 102.425-86.891 126.758-87.324 185.422-122.623 222.81-145.961 181.483-139.386 121.122-152.313 94.76-180.506 116.478-192.318 175.034-246.83 207.007C-228.249 128.121-206.603 11.938-196.947-64.873H163.339C171.098 15.322 190.49 134.825 207.093 210.351Z" fill="#ababab"/>
<path transform="matrix(1,0,0,-1,412.6891,1325.9094)" d="M0 0-10.959-22.413-22.112-.075-46.855 3.44-29.018 20.934-33.339 45.518-11.18 34 10.886 45.667 6.758 21.039 24.681 3.705ZM163.607 110.391H-196.679C-204.438 30.196-223.829-89.307-240.432-164.833L-185.948-134.682-176.744-72.463-147.136-52.968-132.108-72.134-138.645-136.933-116.434-178.808-79.928-143.515-80.38-82.226-56.016-60.169-38.362-82.8-37.858-151.102-12.251-178.04 13.765-147.215 13.281-81.536 30.636-56.906 53.552-81.24 53.984-139.904 89.283-177.292 112.622-135.965 106.046-75.604 118.974-49.242 147.166-70.959 158.979-129.516 213.491-161.489C194.909-82.603 173.264 33.581 163.607 110.391" fill="#ababab"/>
<path transform="matrix(1,0,0,-1,-47.5941,1434.0454)" d="M0 0-22.159 11.518-44.225-.149-40.098 24.479-58.02 41.813-33.339 45.518-22.38 67.932-11.228 45.593 13.516 42.078-4.321 24.584ZM152.609 180.2 143.405 117.981 113.796 98.486 98.769 117.652 105.306 182.451 83.095 224.326 46.589 189.033 47.041 127.744 22.677 105.688 5.023 128.318 4.519 196.62-21.088 223.558-47.104 192.733-46.62 127.055-63.975 102.425-86.891 126.758-87.324 185.422-122.623 222.81-145.961 181.483-139.386 121.122-152.313 94.76-180.506 116.478-192.318 175.034-246.83 207.007C-228.249 128.121-206.603 11.938-196.947-64.873H163.339C171.098 15.322 190.49 134.825 207.093 210.351Z" fill="#ababab"/>
<path transform="matrix(1,0,0,-1,-47.8221,1965.0918)" d="M0 0-10.958-22.413-22.112-.074-46.855 3.44-29.018 20.934-33.339 45.518-11.18 34.001 10.886 45.668 6.758 21.04 24.681 3.705ZM163.607 110.391H-196.679C-204.437 30.197-223.829-89.307-240.432-164.833L-185.948-134.681-176.744-72.463-147.136-52.967-132.108-72.134-138.645-136.933-116.434-178.807-79.928-143.515-80.379-82.226-56.016-60.169-38.362-82.8-37.858-151.101-12.251-178.04 13.765-147.215 13.281-81.536 30.636-56.906 53.552-81.24 53.984-139.904 89.284-177.292 112.622-135.964 106.046-75.604 118.974-49.241 147.167-70.959 158.979-129.516 213.491-161.489C194.909-82.603 173.264 33.581 163.607 110.391" fill="#ababab"/>
<path transform="matrix(1,0,0,-1,420.4831,2073.2276)" d="M0 0-22.159 11.518-44.225-.149-40.098 24.479-58.02 41.813-33.339 45.518-22.38 67.931-11.228 45.593 13.516 42.078-4.321 24.584ZM152.609 180.2 143.405 117.981 113.796 98.486 98.769 117.652 105.306 182.451 83.095 224.326 46.589 189.033 47.041 127.744 22.677 105.688 5.023 128.318 4.52 196.62-21.088 223.558-47.104 192.733-46.62 127.055-63.975 102.425-86.891 126.758-87.324 185.422-122.623 222.81-145.961 181.483-139.386 121.122-152.313 94.76-180.506 116.478-192.318 175.034-246.83 207.007C-228.249 128.121-206.603 11.938-196.947-64.873H163.339C171.098 15.322 190.49 134.825 207.093 210.351Z" fill="#ababab"/>
<path transform="matrix(1,0,0,-1,880.7662,1965.0918)" d="M0 0-10.959-22.413-22.112-.074-46.855 3.44-29.018 20.934-33.339 45.518-11.18 34.001 10.886 45.668 6.758 21.04 24.681 3.705ZM163.607 110.391H-196.679C-204.437 30.197-223.829-89.307-240.432-164.833L-185.948-134.681-176.744-72.463-147.136-52.967-132.108-72.134-138.645-136.933-116.434-178.807-79.928-143.515-80.38-82.226-56.016-60.169-38.362-82.8-37.858-151.101-12.251-178.04 13.765-147.215 13.281-81.536 30.636-56.906 53.552-81.24 53.984-139.904 89.283-177.292 112.622-135.964 106.046-75.604 118.974-49.241 147.167-70.959 158.979-129.516 213.491-161.489C194.909-82.603 173.264 33.581 163.607 110.391" fill="#ababab"/>
<path transform="matrix(1,0,0,-1,1349.2687,2073.2276)" d="M0 0-22.159 11.518-44.225-.149-40.098 24.479-58.02 41.813-33.339 45.518-22.38 67.931-11.228 45.593 13.516 42.078-4.322 24.584ZM152.609 180.2 143.405 117.981 113.796 98.486 98.769 117.652 105.305 182.451 83.095 224.326 46.589 189.033 47.041 127.744 22.677 105.688 5.023 128.318 4.519 196.62-21.088 223.558-47.104 192.733-46.621 127.055-63.975 102.425-86.891 126.758-87.324 185.422-122.623 222.81-145.961 181.483-139.386 121.122-152.313 94.76-180.506 116.478-192.318 175.034-246.83 207.007C-228.249 128.121-206.603 11.938-196.947-64.873H163.339C171.098 15.322 190.49 134.825 207.093 210.351Z" fill="#ababab"/>
<path transform="matrix(1,0,0,-1,1809.5519,1965.0918)" d="M0 0-10.959-22.413-22.112-.074-46.855 3.44-29.018 20.934-33.339 45.518-11.18 34.001 10.886 45.668 6.758 21.04 24.681 3.705ZM163.607 110.391H-196.679C-204.437 30.197-223.829-89.307-240.432-164.833L-185.949-134.681-176.744-72.463-147.136-52.967-132.108-72.134-138.645-136.933-116.434-178.807-79.928-143.515-80.38-82.226-56.016-60.169-38.362-82.8-37.858-151.101-12.251-178.04 13.765-147.215 13.281-81.536 30.636-56.906 53.551-81.24 53.984-139.904 89.283-177.292 112.622-135.964 106.046-75.604 118.974-49.241 147.167-70.959 158.979-129.516 213.491-161.489C194.909-82.603 173.264 33.581 163.607 110.391" fill="#ababab"/>
<path transform="matrix(1,0,0,-1,2277.8572,2073.2276)" d="M0 0-22.159 11.518-44.225-.149-40.098 24.479-58.02 41.813-33.339 45.518-22.381 67.931-11.228 45.593 13.516 42.078-4.322 24.584ZM152.609 180.2 143.405 117.981 113.796 98.486 98.769 117.652 105.305 182.451 83.095 224.326 46.589 189.033 47.04 127.744 22.677 105.688 5.023 128.318 4.519 196.62-21.089 223.558-47.104 192.733-46.621 127.055-63.975 102.425-86.891 126.758-87.324 185.422-122.623 222.81-145.961 181.483-139.386 121.122-152.313 94.76-180.506 116.478-192.318 175.034-246.83 207.007C-228.249 128.121-206.604 11.938-196.947-64.873H163.339C171.098 15.322 190.49 134.825 207.093 210.351Z" fill="#ababab"/>
<path transform="matrix(1,0,0,-1,2738.1402,1965.0918)" d="M0 0-10.959-22.413-22.112-.074-46.855 3.44-29.018 20.934-33.339 45.518-11.18 34.001 10.886 45.668 6.759 21.04 24.681 3.705ZM163.608 110.391H-196.678C-204.437 30.197-223.829-89.307-240.432-164.833L-185.948-134.681-176.744-72.463-147.136-52.967-132.108-72.134-138.645-136.933-116.434-178.807-79.928-143.515-80.38-82.226-56.016-60.169-38.362-82.8-37.858-151.101-12.251-178.04 13.765-147.215 13.281-81.536 30.636-56.906 53.552-81.24 53.984-139.904 89.283-177.292 112.622-135.964 106.046-75.604 118.974-49.241 147.167-70.959 158.979-129.516 213.491-161.489C194.909-82.603 173.264 33.581 163.608 110.391" fill="#ababab"/>
<path transform="matrix(1,0,0,-1,-47.8221,2280.089)" d="M0 0-10.958-22.413-22.112-.075-46.855 3.44-29.018 20.934-33.339 45.518-11.18 34 10.886 45.668 6.758 21.04 24.681 3.705ZM163.607 110.391H-196.679C-204.437 30.196-223.829-89.307-240.432-164.833L-185.948-134.681-176.744-72.463-147.136-52.968-132.108-72.134-138.645-136.933-116.434-178.808-79.928-143.515-80.379-82.226-56.016-60.169-38.362-82.8-37.858-151.102-12.251-178.04 13.765-147.215 13.281-81.536 30.636-56.906 53.552-81.24 53.984-139.904 89.284-177.292 112.622-135.965 106.046-75.604 118.974-49.242 147.167-70.959 158.979-129.516 213.491-161.489C194.909-82.603 173.264 33.581 163.607 110.391" fill="#ababab"/>
<path transform="matrix(1,0,0,-1,420.4831,2388.225)" d="M0 0-22.159 11.518-44.225-.149-40.098 24.479-58.02 41.813-33.339 45.518-22.38 67.932-11.228 45.593 13.516 42.078-4.321 24.585ZM152.609 180.2 143.405 117.981 113.796 98.486 98.769 117.652 105.306 182.451 83.095 224.326 46.589 189.033 47.041 127.744 22.677 105.688 5.023 128.318 4.52 196.62-21.088 223.558-47.104 192.733-46.62 127.055-63.975 102.425-86.891 126.758-87.324 185.422-122.623 222.81-145.961 181.483-139.386 121.122-152.313 94.76-180.506 116.478-192.318 175.034-246.83 207.007C-228.249 128.121-206.603 11.938-196.947-64.873H163.339C171.098 15.322 190.49 134.825 207.093 210.351Z" fill="#ababab"/>
<path transform="matrix(1,0,0,-1,880.7662,2280.089)" d="M0 0-10.959-22.413-22.112-.075-46.855 3.44-29.018 20.934-33.339 45.518-11.18 34 10.886 45.668 6.758 21.04 24.681 3.705ZM163.607 110.391H-196.679C-204.437 30.196-223.829-89.307-240.432-164.833L-185.948-134.681-176.744-72.463-147.136-52.968-132.108-72.134-138.645-136.933-116.434-178.808-79.928-143.515-80.38-82.226-56.016-60.169-38.362-82.8-37.858-151.102-12.251-178.04 13.765-147.215 13.281-81.536 30.636-56.906 53.552-81.24 53.984-139.904 89.283-177.292 112.622-135.965 106.046-75.604 118.974-49.242 147.167-70.959 158.979-129.516 213.491-161.489C194.909-82.603 173.264 33.581 163.607 110.391" fill="#ababab"/>
<path transform="matrix(1,0,0,-1,1349.2687,2388.225)" d="M0 0-22.159 11.518-44.225-.149-40.098 24.479-58.02 41.813-33.339 45.518-22.38 67.932-11.228 45.593 13.516 42.078-4.322 24.585ZM152.609 180.2 143.405 117.981 113.796 98.486 98.769 117.652 105.305 182.451 83.095 224.326 46.589 189.033 47.041 127.744 22.677 105.688 5.023 128.318 4.519 196.62-21.088 223.558-47.104 192.733-46.621 127.055-63.975 102.425-86.891 126.758-87.324 185.422-122.623 222.81-145.961 181.483-139.386 121.122-152.313 94.76-180.506 116.478-192.318 175.034-246.83 207.007C-228.249 128.121-206.603 11.938-196.947-64.873H163.339C171.098 15.322 190.49 134.825 207.093 210.351Z" fill="#ababab"/>
<path transform="matrix(1,0,0,-1,1809.5519,2280.089)" d="M0 0-10.959-22.413-22.112-.075-46.855 3.44-29.018 20.934-33.339 45.518-11.18 34 10.886 45.668 6.758 21.04 24.681 3.705ZM163.607 110.391H-196.679C-204.437 30.196-223.829-89.307-240.432-164.833L-185.949-134.681-176.744-72.463-147.136-52.968-132.108-72.134-138.645-136.933-116.434-178.808-79.928-143.515-80.38-82.226-56.016-60.169-38.362-82.8-37.858-151.102-12.251-178.04 13.765-147.215 13.281-81.536 30.636-56.906 53.551-81.24 53.984-139.904 89.283-177.292 112.622-135.965 106.046-75.604 118.974-49.242 147.167-70.959 158.979-129.516 213.491-161.489C194.909-82.603 173.264 33.581 163.607 110.391" fill="#ababab"/>
<path transform="matrix(1,0,0,-1,2277.8572,2388.225)" d="M0 0-22.159 11.518-44.225-.149-40.098 24.479-58.02 41.813-33.339 45.518-22.381 67.932-11.228 45.593 13.516 42.078-4.322 24.585ZM152.609 180.2 143.405 117.981 113.796 98.486 98.769 117.652 105.305 182.451 83.095 224.326 46.589 189.033 47.04 127.744 22.677 105.688 5.023 128.318 4.519 196.62-21.089 223.558-47.104 192.733-46.621 127.055-63.975 102.425-86.891 126.758-87.324 185.422-122.623 222.81-145.961 181.483-139.386 121.122-152.313 94.76-180.506 116.478-192.318 175.034-246.83 207.007C-228.249 128.121-206.604 11.938-196.947-64.873H163.339C171.098 15.322 190.49 134.825 207.093 210.351Z" fill="#ababab"/>
<path transform="matrix(1,0,0,-1,2738.1402,2280.089)" d="M0 0-10.959-22.413-22.112-.075-46.855 3.44-29.018 20.934-33.339 45.518-11.18 34 10.886 45.668 6.759 21.04 24.681 3.705ZM163.608 110.391H-196.678C-204.437 30.196-223.829-89.307-240.432-164.833L-185.948-134.681-176.744-72.463-147.136-52.968-132.108-72.134-138.645-136.933-116.434-178.808-79.928-143.515-80.38-82.226-56.016-60.169-38.362-82.8-37.858-151.102-12.251-178.04 13.765-147.215 13.281-81.536 30.636-56.906 53.552-81.24 53.984-139.904 89.283-177.292 112.622-135.965 106.046-75.604 118.974-49.242 147.167-70.959 158.979-129.516 213.491-161.489C194.909-82.603 173.264 33.581 163.608 110.391" fill="#ababab"/>
<path transform="matrix(1,0,0,-1,2746.3682,3018.757)" d="M0 0-22.159 11.518-44.225-.149-40.098 24.479-58.02 41.813-33.339 45.519-22.381 67.932-11.228 45.593 13.516 42.078-4.322 24.585ZM152.609 180.2 143.405 117.981 113.797 98.486 98.769 117.652 105.305 182.451 83.095 224.326 46.589 189.033 47.04 127.744 22.677 105.688 5.023 128.318 4.519 196.62-21.088 223.558-47.104 192.733-46.62 127.055-63.975 102.425-86.891 126.758-87.323 185.422-122.623 222.81-145.961 181.483-139.385 121.122-152.313 94.76-180.506 116.478-192.318 175.034-246.83 207.007C-228.249 128.121-206.603 11.938-196.947-64.873H163.339C171.098 15.322 190.49 134.825 207.093 210.351Z" fill="#ababab"/>
<path transform="matrix(1,0,0,-1,2278.063,2910.621)" d="M0 0-10.959-22.413-22.112-.075-46.855 3.44-29.018 20.934-33.339 45.518-11.18 34.001 10.886 45.668 6.759 21.04 24.681 3.705ZM163.608 110.391H-196.678C-204.437 30.196-223.829-89.307-240.432-164.833L-185.948-134.681-176.744-72.463-147.136-52.968-132.108-72.134-138.645-136.933-116.434-178.807-79.928-143.515-80.38-82.226-56.016-60.169-38.362-82.8-37.858-151.102-12.251-178.04 13.765-147.215 13.281-81.536 30.636-56.906 53.552-81.24 53.984-139.904 89.283-177.292 112.622-135.965 106.046-75.604 118.974-49.241 147.167-70.959 158.979-129.516 213.491-161.489C194.909-82.603 173.264 33.581 163.608 110.391" fill="#ababab"/>
<path transform="matrix(1,0,0,-1,1817.7799,3018.757)" d="M0 0-22.159 11.518-44.225-.149-40.098 24.479-58.021 41.813-33.339 45.519-22.381 67.932-11.228 45.593 13.516 42.078-4.322 24.585ZM152.609 180.2 143.405 117.981 113.796 98.486 98.769 117.652 105.305 182.451 83.095 224.326 46.589 189.033 47.04 127.744 22.677 105.688 5.023 128.318 4.519 196.62-21.088 223.558-47.104 192.733-46.621 127.055-63.975 102.425-86.891 126.758-87.324 185.422-122.623 222.81-145.961 181.483-139.386 121.122-152.313 94.76-180.506 116.478-192.318 175.034-246.83 207.007C-228.249 128.121-206.604 11.938-196.947-64.873H163.339C171.098 15.322 190.49 134.825 207.093 210.351Z" fill="#ababab"/>
<path transform="matrix(1,0,0,-1,1349.2775,2910.621)" d="M0 0-10.959-22.413-22.112-.075-46.855 3.44-29.018 20.934-33.339 45.518-11.18 34.001 10.886 45.668 6.758 21.04 24.681 3.705ZM163.607 110.391H-196.679C-204.437 30.196-223.829-89.307-240.432-164.833L-185.949-134.681-176.744-72.463-147.136-52.968-132.108-72.134-138.645-136.933-116.434-178.807-79.928-143.515-80.38-82.226-56.016-60.169-38.362-82.8-37.859-151.102-12.251-178.04 13.765-147.215 13.281-81.536 30.636-56.906 53.551-81.24 53.984-139.904 89.283-177.292 112.622-135.965 106.046-75.604 118.974-49.241 147.167-70.959 158.979-129.516 213.491-161.489C194.909-82.603 173.264 33.581 163.607 110.391" fill="#ababab"/>
<path transform="matrix(1,0,0,-1,888.9943,3018.757)" d="M0 0-22.159 11.518-44.225-.149-40.098 24.479-58.02 41.813-33.339 45.519-22.38 67.932-11.228 45.593 13.516 42.078-4.322 24.585ZM152.609 180.2 143.405 117.981 113.796 98.486 98.769 117.652 105.305 182.451 83.095 224.326 46.589 189.033 47.041 127.744 22.677 105.688 5.023 128.318 4.519 196.62-21.088 223.558-47.104 192.733-46.621 127.055-63.975 102.425-86.891 126.758-87.324 185.422-122.623 222.81-145.961 181.483-139.386 121.122-152.313 94.76-180.506 116.478-192.318 175.034-246.83 207.007C-228.249 128.121-206.603 11.938-196.947-64.873H163.339C171.098 15.322 190.49 134.825 207.093 210.351Z" fill="#ababab"/>
<path transform="matrix(1,0,0,-1,420.6891,2910.621)" d="M0 0-10.959-22.413-22.112-.075-46.855 3.44-29.018 20.934-33.339 45.518-11.18 34.001 10.886 45.668 6.758 21.04 24.681 3.705ZM163.607 110.391H-196.679C-204.438 30.196-223.829-89.307-240.432-164.833L-185.948-134.681-176.744-72.463-147.136-52.968-132.108-72.134-138.645-136.933-116.434-178.807-79.928-143.515-80.38-82.226-56.016-60.169-38.362-82.8-37.858-151.102-12.251-178.04 13.765-147.215 13.281-81.536 30.636-56.906 53.552-81.24 53.984-139.904 89.283-177.292 112.622-135.965 106.046-75.604 118.974-49.241 147.166-70.959 158.979-129.516 213.491-161.489C194.909-82.603 173.264 33.581 163.607 110.391" fill="#ababab"/>
<path transform="matrix(1,0,0,-1,-39.5941,3018.757)" d="M0 0-22.159 11.518-44.225-.149-40.098 24.479-58.02 41.813-33.339 45.519-22.38 67.932-11.228 45.593 13.516 42.078-4.321 24.585ZM152.609 180.2 143.405 117.981 113.796 98.486 98.769 117.652 105.306 182.451 83.095 224.326 46.589 189.033 47.041 127.744 22.677 105.688 5.023 128.318 4.519 196.62-21.088 223.558-47.104 192.733-46.62 127.055-63.975 102.425-86.891 126.758-87.324 185.422-122.623 222.81-145.961 181.483-139.386 121.122-152.313 94.76-180.506 116.478-192.318 175.034-246.83 207.007C-228.249 128.121-206.603 11.938-196.947-64.873H163.339C171.098 15.322 190.49 134.825 207.093 210.351Z" fill="#ababab"/>
<path transform="matrix(1,0,0,-1,2746.3682,2703.7596)" d="M0 0-22.159 11.518-44.225-.149-40.098 24.479-58.02 41.813-33.339 45.518-22.381 67.932-11.228 45.593 13.516 42.078-4.322 24.584ZM152.609 180.2 143.405 117.981 113.797 98.486 98.769 117.652 105.305 182.451 83.095 224.326 46.589 189.033 47.04 127.744 22.677 105.688 5.023 128.318 4.519 196.62-21.088 223.558-47.104 192.733-46.62 127.055-63.975 102.425-86.891 126.758-87.323 185.422-122.623 222.81-145.961 181.483-139.385 121.122-152.313 94.76-180.506 116.478-192.318 175.034-246.83 207.007C-228.249 128.121-206.603 11.938-196.947-64.873H163.339C171.098 15.322 190.49 134.825 207.093 210.351Z" fill="#ababab"/>
<path transform="matrix(1,0,0,-1,2278.063,2595.6236)" d="M0 0-10.959-22.413-22.112-.075-46.855 3.44-29.018 20.934-33.339 45.518-11.18 34.001 10.886 45.668 6.759 21.039 24.681 3.705ZM163.608 110.391H-196.678C-204.437 30.196-223.829-89.307-240.432-164.833L-185.948-134.681-176.744-72.463-147.136-52.968-132.108-72.134-138.645-136.933-116.434-178.808-79.928-143.515-80.38-82.226-56.016-60.169-38.362-82.8-37.858-151.102-12.251-178.04 13.765-147.215 13.281-81.536 30.636-56.906 53.552-81.24 53.984-139.904 89.283-177.292 112.622-135.965 106.046-75.604 118.974-49.242 147.167-70.959 158.979-129.516 213.491-161.489C194.909-82.603 173.264 33.581 163.608 110.391" fill="#ababab"/>
<path transform="matrix(1,0,0,-1,1817.7799,2703.7596)" d="M0 0-22.159 11.518-44.225-.149-40.098 24.479-58.021 41.813-33.339 45.518-22.381 67.932-11.228 45.593 13.516 42.078-4.322 24.584ZM152.609 180.2 143.405 117.981 113.796 98.486 98.769 117.652 105.305 182.451 83.095 224.326 46.589 189.033 47.04 127.744 22.677 105.688 5.023 128.318 4.519 196.62-21.088 223.558-47.104 192.733-46.621 127.055-63.975 102.425-86.891 126.758-87.324 185.422-122.623 222.81-145.961 181.483-139.386 121.122-152.313 94.76-180.506 116.478-192.318 175.034-246.83 207.007C-228.249 128.121-206.604 11.938-196.947-64.873H163.339C171.098 15.322 190.49 134.825 207.093 210.351Z" fill="#ababab"/>
<path transform="matrix(1,0,0,-1,1349.2775,2595.6236)" d="M0 0-10.959-22.413-22.112-.075-46.855 3.44-29.018 20.934-33.339 45.518-11.18 34.001 10.886 45.668 6.758 21.039 24.681 3.705ZM163.607 110.391H-196.679C-204.437 30.196-223.829-89.307-240.432-164.833L-185.949-134.681-176.744-72.463-147.136-52.968-132.108-72.134-138.645-136.933-116.434-178.808-79.928-143.515-80.38-82.226-56.016-60.169-38.362-82.8-37.859-151.102-12.251-178.04 13.765-147.215 13.281-81.536 30.636-56.906 53.551-81.24 53.984-139.904 89.283-177.292 112.622-135.965 106.046-75.604 118.974-49.242 147.167-70.959 158.979-129.516 213.491-161.489C194.909-82.603 173.264 33.581 163.607 110.391" fill="#ababab"/>
<path transform="matrix(1,0,0,-1,888.9943,2703.7596)" d="M0 0-22.159 11.518-44.225-.149-40.098 24.479-58.02 41.813-33.339 45.518-22.38 67.932-11.228 45.593 13.516 42.078-4.322 24.584ZM152.609 180.2 143.405 117.981 113.796 98.486 98.769 117.652 105.305 182.451 83.095 224.326 46.589 189.033 47.041 127.744 22.677 105.688 5.023 128.318 4.519 196.62-21.088 223.558-47.104 192.733-46.621 127.055-63.975 102.425-86.891 126.758-87.324 185.422-122.623 222.81-145.961 181.483-139.386 121.122-152.313 94.76-180.506 116.478-192.318 175.034-246.83 207.007C-228.249 128.121-206.603 11.938-196.947-64.873H163.339C171.098 15.322 190.49 134.825 207.093 210.351Z" fill="#ababab"/>
<path transform="matrix(1,0,0,-1,420.6891,2595.6236)" d="M0 0-10.959-22.413-22.112-.075-46.855 3.44-29.018 20.934-33.339 45.518-11.18 34.001 10.886 45.668 6.758 21.039 24.681 3.705ZM163.607 110.391H-196.679C-204.438 30.196-223.829-89.307-240.432-164.833L-185.948-134.681-176.744-72.463-147.136-52.968-132.108-72.134-138.645-136.933-116.434-178.808-79.928-143.515-80.38-82.226-56.016-60.169-38.362-82.8-37.858-151.102-12.251-178.04 13.765-147.215 13.281-81.536 30.636-56.906 53.552-81.24 53.984-139.904 89.283-177.292 112.622-135.965 106.046-75.604 118.974-49.242 147.166-70.959 158.979-129.516 213.491-161.489C194.909-82.603 173.264 33.581 163.607 110.391" fill="#ababab"/>
<path transform="matrix(1,0,0,-1,-39.5941,2703.7596)" d="M0 0-22.159 11.518-44.225-.149-40.098 24.479-58.02 41.813-33.339 45.518-22.38 67.932-11.228 45.593 13.516 42.078-4.321 24.584ZM152.609 180.2 143.405 117.981 113.796 98.486 98.769 117.652 105.306 182.451 83.095 224.326 46.589 189.033 47.041 127.744 22.677 105.688 5.023 128.318 4.519 196.62-21.088 223.558-47.104 192.733-46.62 127.055-63.975 102.425-86.891 126.758-87.324 185.422-122.623 222.81-145.961 181.483-139.386 121.122-152.313 94.76-180.506 116.478-192.318 175.034-246.83 207.007C-228.249 128.121-206.603 11.938-196.947-64.873H163.339C171.098 15.322 190.49 134.825 207.093 210.351Z" fill="#ababab"/>
<path transform="matrix(1,0,0,-1,-38.8221,3234.6185)" d="M0 0-10.958-22.413-22.112-.075-46.855 3.44-29.018 20.934-33.339 45.518-11.18 34 10.886 45.667 6.758 21.04 24.681 3.705ZM163.607 110.391H-196.679C-204.437 30.196-223.829-89.307-240.432-164.833L-185.948-134.682-176.744-72.463-147.136-52.968-132.108-72.134-138.645-136.933-116.434-178.808-79.928-143.515-80.379-82.226-56.016-60.169-38.362-82.8-37.858-151.102-12.251-178.04 13.765-147.215 13.281-81.536 30.636-56.906 53.552-81.24 53.984-139.904 89.284-177.292 112.622-135.965 106.046-75.604 118.974-49.242 147.167-70.959 158.979-129.516 213.491-161.489C194.909-82.603 173.264 33.581 163.607 110.391" fill="#ababab"/>
<path transform="matrix(1,0,0,-1,429.4831,3342.7545)" d="M0 0-22.159 11.518-44.225-.149-40.098 24.479-58.02 41.813-33.339 45.518-22.38 67.931-11.228 45.593 13.516 42.078-4.321 24.584ZM152.609 180.2 143.405 117.981 113.796 98.486 98.769 117.652 105.306 182.451 83.095 224.326 46.589 189.033 47.041 127.744 22.677 105.688 5.023 128.318 4.52 196.62-21.088 223.558-47.104 192.733-46.62 127.055-63.975 102.425-86.891 126.758-87.324 185.422-122.623 222.81-145.961 181.483-139.386 121.122-152.313 94.76-180.506 116.478-192.318 175.034-246.83 207.007C-228.249 128.121-206.603 11.938-196.947-64.873H163.339C171.098 15.322 190.49 134.825 207.093 210.351Z" fill="#ababab"/>
<path transform="matrix(1,0,0,-1,889.7662,3234.6185)" d="M0 0-10.959-22.413-22.112-.075-46.855 3.44-29.018 20.934-33.339 45.518-11.18 34 10.886 45.667 6.758 21.04 24.681 3.705ZM163.607 110.391H-196.679C-204.437 30.196-223.829-89.307-240.432-164.833L-185.948-134.682-176.744-72.463-147.136-52.968-132.108-72.134-138.645-136.933-116.434-178.808-79.928-143.515-80.38-82.226-56.016-60.169-38.362-82.8-37.858-151.102-12.251-178.04 13.765-147.215 13.281-81.536 30.636-56.906 53.552-81.24 53.984-139.904 89.283-177.292 112.622-135.965 106.046-75.604 118.974-49.242 147.167-70.959 158.979-129.516 213.491-161.489C194.909-82.603 173.264 33.581 163.607 110.391" fill="#ababab"/>
<path transform="matrix(1,0,0,-1,1358.2687,3342.7545)" d="M0 0-22.159 11.518-44.225-.149-40.098 24.479-58.02 41.813-33.339 45.518-22.38 67.931-11.228 45.593 13.516 42.078-4.322 24.584ZM152.609 180.2 143.405 117.981 113.796 98.486 98.769 117.652 105.305 182.451 83.095 224.326 46.589 189.033 47.041 127.744 22.677 105.688 5.023 128.318 4.519 196.62-21.088 223.558-47.104 192.733-46.621 127.055-63.975 102.425-86.891 126.758-87.324 185.422-122.623 222.81-145.961 181.483-139.386 121.122-152.313 94.76-180.506 116.478-192.318 175.034-246.83 207.007C-228.249 128.121-206.603 11.938-196.947-64.873H163.339C171.098 15.322 190.49 134.825 207.093 210.351Z" fill="#ababab"/>
<path transform="matrix(1,0,0,-1,1818.5519,3234.6185)" d="M0 0-10.959-22.413-22.112-.075-46.855 3.44-29.018 20.934-33.339 45.518-11.18 34 10.886 45.667 6.758 21.04 24.681 3.705ZM163.607 110.391H-196.679C-204.437 30.196-223.829-89.307-240.432-164.833L-185.949-134.682-176.744-72.463-147.136-52.968-132.108-72.134-138.645-136.933-116.434-178.808-79.928-143.515-80.38-82.226-56.016-60.169-38.362-82.8-37.858-151.102-12.251-178.04 13.765-147.215 13.281-81.536 30.636-56.906 53.551-81.24 53.984-139.904 89.283-177.292 112.622-135.965 106.046-75.604 118.974-49.242 147.167-70.959 158.979-129.516 213.491-161.489C194.909-82.603 173.264 33.581 163.607 110.391" fill="#ababab"/>
<path transform="matrix(1,0,0,-1,2286.8572,3342.7545)" d="M0 0-22.159 11.518-44.225-.149-40.098 24.479-58.02 41.813-33.339 45.518-22.381 67.931-11.228 45.593 13.516 42.078-4.322 24.584ZM152.609 180.2 143.405 117.981 113.796 98.486 98.769 117.652 105.305 182.451 83.095 224.326 46.589 189.033 47.04 127.744 22.677 105.688 5.023 128.318 4.519 196.62-21.089 223.558-47.104 192.733-46.621 127.055-63.975 102.425-86.891 126.758-87.324 185.422-122.623 222.81-145.961 181.483-139.386 121.122-152.313 94.76-180.506 116.478-192.318 175.034-246.83 207.007C-228.249 128.121-206.604 11.938-196.947-64.873H163.339C171.098 15.322 190.49 134.825 207.093 210.351Z" fill="#ababab"/>
<path transform="matrix(1,0,0,-1,2747.1402,3234.6185)" d="M0 0-10.959-22.413-22.112-.075-46.855 3.44-29.018 20.934-33.339 45.518-11.18 34 10.886 45.667 6.759 21.04 24.681 3.705ZM163.608 110.391H-196.678C-204.437 30.196-223.829-89.307-240.432-164.833L-185.948-134.682-176.744-72.463-147.136-52.968-132.108-72.134-138.645-136.933-116.434-178.808-79.928-143.515-80.38-82.226-56.016-60.169-38.362-82.8-37.858-151.102-12.251-178.04 13.765-147.215 13.281-81.536 30.636-56.906 53.552-81.24 53.984-139.904 89.283-177.292 112.622-135.965 106.046-75.604 118.974-49.242 147.167-70.959 158.979-129.516 213.491-161.489C194.909-82.603 173.264 33.581 163.608 110.391" fill="#ababab"/>
<path transform="matrix(1,0,0,-1,-38.8221,3549.616)" d="M0 0-10.958-22.413-22.112-.075-46.855 3.44-29.018 20.934-33.339 45.518-11.18 34.001 10.886 45.668 6.758 21.04 24.681 3.705ZM163.607 110.391H-196.679C-204.437 30.196-223.829-89.307-240.432-164.833L-185.948-134.682-176.744-72.462-147.136-52.967-132.108-72.134-138.645-136.933-116.434-178.808-79.928-143.515-80.379-82.226-56.016-60.169-38.362-82.8-37.858-151.102-12.251-178.04 13.765-147.215 13.281-81.537 30.636-56.906 53.552-81.24 53.984-139.904 89.284-177.292 112.622-135.964 106.046-75.604 118.974-49.242 147.167-70.959 158.979-129.516 213.491-161.489C194.909-82.603 173.264 33.581 163.607 110.391" fill="#ababab"/>
<path transform="matrix(1,0,0,-1,429.4831,3657.7518)" d="M0 0-22.159 11.518-44.225-.149-40.098 24.479-58.02 41.813-33.339 45.518-22.38 67.931-11.228 45.593 13.516 42.078-4.321 24.584ZM152.609 180.2 143.405 117.981 113.796 98.486 98.769 117.652 105.306 182.451 83.095 224.326 46.589 189.033 47.041 127.744 22.677 105.688 5.023 128.318 4.52 196.62-21.088 223.558-47.104 192.733-46.62 127.054-63.975 102.425-86.891 126.758-87.324 185.422-122.623 222.81-145.961 181.483-139.386 121.122-152.313 94.76-180.506 116.478-192.318 175.034-246.83 207.007C-228.249 128.121-206.603 11.938-196.947-64.873H163.339C171.098 15.322 190.49 134.825 207.093 210.351Z" fill="#ababab"/>
<path transform="matrix(1,0,0,-1,889.7662,3549.616)" d="M0 0-10.959-22.413-22.112-.075-46.855 3.44-29.018 20.934-33.339 45.518-11.18 34.001 10.886 45.668 6.758 21.04 24.681 3.705ZM163.607 110.391H-196.679C-204.437 30.196-223.829-89.307-240.432-164.833L-185.948-134.682-176.744-72.462-147.136-52.967-132.108-72.134-138.645-136.933-116.434-178.808-79.928-143.515-80.38-82.226-56.016-60.169-38.362-82.8-37.858-151.102-12.251-178.04 13.765-147.215 13.281-81.537 30.636-56.906 53.552-81.24 53.984-139.904 89.283-177.292 112.622-135.964 106.046-75.604 118.974-49.242 147.167-70.959 158.979-129.516 213.491-161.489C194.909-82.603 173.264 33.581 163.607 110.391" fill="#ababab"/>
<path transform="matrix(1,0,0,-1,1358.2687,3657.7518)" d="M0 0-22.159 11.518-44.225-.149-40.098 24.479-58.02 41.813-33.339 45.518-22.38 67.931-11.228 45.593 13.516 42.078-4.322 24.584ZM152.609 180.2 143.405 117.981 113.796 98.486 98.769 117.652 105.305 182.451 83.095 224.326 46.589 189.033 47.041 127.744 22.677 105.688 5.023 128.318 4.519 196.62-21.088 223.558-47.104 192.733-46.621 127.054-63.975 102.425-86.891 126.758-87.324 185.422-122.623 222.81-145.961 181.483-139.386 121.122-152.313 94.76-180.506 116.478-192.318 175.034-246.83 207.007C-228.249 128.121-206.603 11.938-196.947-64.873H163.339C171.098 15.322 190.49 134.825 207.093 210.351Z" fill="#ababab"/>
<path transform="matrix(1,0,0,-1,1818.5519,3549.616)" d="M0 0-10.959-22.413-22.112-.075-46.855 3.44-29.018 20.934-33.339 45.518-11.18 34.001 10.886 45.668 6.758 21.04 24.681 3.705ZM163.607 110.391H-196.679C-204.437 30.196-223.829-89.307-240.432-164.833L-185.949-134.682-176.744-72.462-147.136-52.967-132.108-72.134-138.645-136.933-116.434-178.808-79.928-143.515-80.38-82.226-56.016-60.169-38.362-82.8-37.858-151.102-12.251-178.04 13.765-147.215 13.281-81.537 30.636-56.906 53.551-81.24 53.984-139.904 89.283-177.292 112.622-135.964 106.046-75.604 118.974-49.242 147.167-70.959 158.979-129.516 213.491-161.489C194.909-82.603 173.264 33.581 163.607 110.391" fill="#ababab"/>
<path transform="matrix(1,0,0,-1,2286.8572,3657.7518)" d="M0 0-22.159 11.518-44.225-.149-40.098 24.479-58.02 41.813-33.339 45.518-22.381 67.931-11.228 45.593 13.516 42.078-4.322 24.584ZM152.609 180.2 143.405 117.981 113.796 98.486 98.769 117.652 105.305 182.451 83.095 224.326 46.589 189.033 47.04 127.744 22.677 105.688 5.023 128.318 4.519 196.62-21.089 223.558-47.104 192.733-46.621 127.054-63.975 102.425-86.891 126.758-87.324 185.422-122.623 222.81-145.961 181.483-139.386 121.122-152.313 94.76-180.506 116.478-192.318 175.034-246.83 207.007C-228.249 128.121-206.604 11.938-196.947-64.873H163.339C171.098 15.322 190.49 134.825 207.093 210.351Z" fill="#ababab"/>
<path transform="matrix(1,0,0,-1,2747.1402,3549.616)" d="M0 0-10.959-22.413-22.112-.075-46.855 3.44-29.018 20.934-33.339 45.518-11.18 34.001 10.886 45.668 6.759 21.04 24.681 3.705ZM163.608 110.391H-196.678C-204.437 30.196-223.829-89.307-240.432-164.833L-185.948-134.682-176.744-72.462-147.136-52.967-132.108-72.134-138.645-136.933-116.434-178.808-79.928-143.515-80.38-82.226-56.016-60.169-38.362-82.8-37.858-151.102-12.251-178.04 13.765-147.215 13.281-81.537 30.636-56.906 53.552-81.24 53.984-139.904 89.283-177.292 112.622-135.964 106.046-75.604 118.974-49.242 147.167-70.959 158.979-129.516 213.491-161.489C194.909-82.603 173.264 33.581 163.608 110.391" fill="#ababab"/>
</g>
</g>
</svg>
